<svg xmlns="http://www.w3.org/2000/svg" width="980" height="560" viewBox="0 0 980 560">
<rect width="100%" height="100%" fill="#FAFAFA"/>
<style>
text { font-family: Helvetica, Arial, sans-serif; fill: #1F2937; }
.title { font-size: 24px; font-weight: 700; }
.axis { font-size: 12px; }
.label { font-size: 13px; font-weight: 600; }
.small { font-size: 11px; fill: #4B5563; }
</style>
<text x="90" y="36" class="title">AAPL Ablation: Mean Cumulative Return Curve</text>
<text x="90" y="56" class="small">Curves show mean evaluation cumulative return across seeds and fixed windows.</text>
<line x1="90" y1="70" x2="90" y2="490" stroke="#374151" stroke-width="1.5"/>
<line x1="90" y1="490" x2="950" y2="490" stroke="#374151" stroke-width="1.5"/>
<line x1="90.00" y1="490" x2="90.00" y2="496" stroke="#374151" stroke-width="1"/>
<text x="90.00" y="514" text-anchor="middle" class="axis">0</text>
<line x1="185.56" y1="490" x2="185.56" y2="496" stroke="#374151" stroke-width="1"/>
<text x="185.56" y="514" text-anchor="middle" class="axis">28</text>
<line x1="281.11" y1="490" x2="281.11" y2="496" stroke="#374151" stroke-width="1"/>
<text x="281.11" y="514" text-anchor="middle" class="axis">56</text>
<line x1="376.67" y1="490" x2="376.67" y2="496" stroke="#374151" stroke-width="1"/>
<text x="376.67" y="514" text-anchor="middle" class="axis">84</text>
<line x1="472.22" y1="490" x2="472.22" y2="496" stroke="#374151" stroke-width="1"/>
<text x="472.22" y="514" text-anchor="middle" class="axis">112</text>
<line x1="567.78" y1="490" x2="567.78" y2="496" stroke="#374151" stroke-width="1"/>
<text x="567.78" y="514" text-anchor="middle" class="axis">139</text>
<line x1="663.33" y1="490" x2="663.33" y2="496" stroke="#374151" stroke-width="1"/>
<text x="663.33" y="514" text-anchor="middle" class="axis">167</text>
<line x1="758.89" y1="490" x2="758.89" y2="496" stroke="#374151" stroke-width="1"/>
<text x="758.89" y="514" text-anchor="middle" class="axis">195</text>
<line x1="854.44" y1="490" x2="854.44" y2="496" stroke="#374151" stroke-width="1"/>
<text x="854.44" y="514" text-anchor="middle" class="axis">223</text>
<line x1="950.00" y1="490" x2="950.00" y2="496" stroke="#374151" stroke-width="1"/>
<text x="950.00" y="514" text-anchor="middle" class="axis">251</text>
<line x1="84" y1="490.00" x2="950" y2="490.00" stroke="#E5E7EB" stroke-width="1"/>
<text x="80" y="494.00" text-anchor="end" class="axis">-0.02</text>
<line x1="84" y1="406.00" x2="950" y2="406.00" stroke="#E5E7EB" stroke-width="1"/>
<text x="80" y="410.00" text-anchor="end" class="axis">0.02</text>
<line x1="84" y1="322.00" x2="950" y2="322.00" stroke="#E5E7EB" stroke-width="1"/>
<text x="80" y="326.00" text-anchor="end" class="axis">0.06</text>
<line x1="84" y1="238.00" x2="950" y2="238.00" stroke="#E5E7EB" stroke-width="1"/>
<text x="80" y="242.00" text-anchor="end" class="axis">0.10</text>
<line x1="84" y1="154.00" x2="950" y2="154.00" stroke="#E5E7EB" stroke-width="1"/>
<text x="80" y="158.00" text-anchor="end" class="axis">0.14</text>
<line x1="84" y1="70.00" x2="950" y2="70.00" stroke="#E5E7EB" stroke-width="1"/>
<text x="80" y="74.00" text-anchor="end" class="axis">0.19</text>
<polyline points="90.00,444.68 93.43,445.28 96.85,451.66 100.28,443.74 103.71,443.27 107.13,442.53 110.56,443.93 113.98,444.18 117.41,442.25 120.84,436.99 124.26,436.40 127.69,435.51 131.12,431.66 134.54,434.41 137.97,433.78 141.39,432.33 144.82,435.75 148.25,438.83 151.67,432.85 155.10,430.96 158.53,428.29 161.95,425.46 165.38,423.44 168.80,421.84 172.23,417.91 175.66,415.11 179.08,413.15 182.51,410.02 185.94,407.40 189.36,407.63 192.79,411.17 196.22,412.04 199.64,414.43 203.07,412.99 206.49,413.17 209.92,411.65 213.35,405.17 216.77,402.31 220.20,400.43 223.63,396.06 227.05,395.68 230.48,394.36 233.90,392.29 237.33,392.64 240.76,392.48 244.18,387.12 247.61,385.67 251.04,384.51 254.46,381.53 257.89,380.67 261.31,382.60 264.74,384.56 268.17,380.27 271.59,378.31 275.02,380.08 278.45,377.60 281.87,379.81 285.30,379.60 288.73,377.55 292.15,375.75 295.58,378.43 299.00,379.13 302.43,377.72 305.86,380.97 309.28,379.65 312.71,383.15 316.14,388.17 319.56,383.93 322.99,384.56 326.41,388.42 329.84,391.17 333.27,387.70 336.69,386.03 340.12,389.38 343.55,393.39 346.97,387.00 350.40,385.09 353.82,383.16 357.25,384.02 360.68,379.57 364.10,378.55 367.53,373.67 370.96,372.88 374.38,378.97 377.81,377.80 381.24,374.75 384.66,375.84 388.09,373.06 391.51,372.47 394.94,372.39 398.37,373.34 401.79,375.63 405.22,378.76 408.65,376.74 412.07,376.53 415.50,373.78 418.92,373.44 422.35,374.19 425.78,367.66 429.20,368.43 432.63,366.33 436.06,365.83 439.48,367.27 442.91,368.53 446.33,369.51 449.76,371.73 453.19,377.25 456.61,381.50 460.04,376.85 463.47,372.59 466.89,375.96 470.32,382.39 473.75,384.64 477.17,384.67 480.60,391.19 484.02,389.34 487.45,385.58 490.88,390.52 494.30,388.27 497.73,383.83 501.16,390.16 504.58,386.12 508.01,386.64 511.43,383.63 514.86,381.60 518.29,384.96 521.71,386.09 525.14,388.91 528.57,388.36 531.99,385.34 535.42,385.49 538.84,384.36 542.27,384.21 545.70,385.14 549.12,380.84 552.55,380.44 555.98,372.81 559.40,376.48 562.83,377.73 566.25,375.82 569.68,374.99 573.11,375.21 576.53,377.85 579.96,377.79 583.39,376.31 586.81,375.28 590.24,374.56 593.67,373.13 597.09,370.63 600.52,367.47 603.94,368.19 607.37,365.74 610.80,366.75 614.22,363.80 617.65,368.38 621.08,365.12 624.50,360.75 627.93,355.89 631.35,354.08 634.78,355.35 638.21,357.86 641.63,359.50 645.06,359.80 648.49,362.78 651.91,366.08 655.34,367.03 658.76,366.64 662.19,369.55 665.62,362.65 669.04,359.51 672.47,359.58 675.90,358.63 679.32,355.91 682.75,356.62 686.18,354.01 689.60,354.28 693.03,354.72 696.45,356.44 699.88,353.09 703.31,348.57 706.73,351.00 710.16,347.51 713.59,344.53 717.01,345.97 720.44,346.85 723.86,348.61 727.29,345.45 730.72,347.46 734.14,342.32 737.57,340.45 741.00,345.06 744.42,340.93 747.85,332.87 751.27,332.95 754.70,336.74 758.13,337.79 761.55,336.53 764.98,329.35 768.41,321.44 771.83,323.07 775.26,323.15 778.69,318.57 782.11,311.89 785.54,309.39 788.96,306.83 792.39,302.18 795.82,305.88 799.24,305.15 802.67,305.19 806.10,303.01 809.52,303.12 812.95,303.68 816.37,300.82 819.80,304.02 823.23,300.68 826.65,294.33 830.08,291.78 833.51,295.55 836.93,291.64 840.36,287.01 843.78,284.91 847.21,283.43 850.64,283.52 854.06,288.17 857.49,290.73 860.92,289.18 864.34,290.39 867.77,293.89 871.20,296.57 874.62,292.89 878.05,288.91 881.47,284.61 884.90,280.54 888.33,281.56 891.75,277.57 895.18,277.05 898.61,276.10 902.03,279.74 905.46,278.43 908.88,276.30 912.31,275.65 915.74,277.28 919.16,278.72 922.59,281.36 926.02,280.19 929.44,282.33 932.87,287.04 936.29,287.73 939.72,280.45 943.15,280.37 946.57,280.69 950.00,281.65" fill="none" stroke="#4E79A7" stroke-width="3" stroke-linejoin="round" stroke-linecap="round"/>
<line x1="730" y1="90" x2="748" y2="90" stroke="#4E79A7" stroke-width="4" stroke-linecap="round"/>
<text x="756" y="94" class="axis">DQN</text>
<polyline points="90.00,444.68 93.43,445.67 96.85,455.00 100.28,444.30 103.71,443.82 107.13,443.27 110.56,446.00 113.98,446.52 117.41,442.44 120.84,432.84 124.26,432.33 127.69,430.02 131.12,423.73 134.54,429.11 137.97,428.89 141.39,425.43 144.82,430.61 148.25,435.82 151.67,426.33 155.10,423.08 158.53,419.25 161.95,414.78 165.38,411.70 168.80,408.66 172.23,403.67 175.66,398.46 179.08,396.81 182.51,393.83 185.94,388.39 189.36,390.19 192.79,396.30 196.22,395.72 199.64,402.39 203.07,402.57 206.49,401.96 209.92,398.89 213.35,388.96 216.77,387.15 220.20,384.98 223.63,377.54 227.05,377.91 230.48,377.62 233.90,373.02 237.33,374.11 240.76,373.91 244.18,365.51 247.61,363.07 251.04,360.60 254.46,355.52 257.89,353.77 261.31,357.80 264.74,361.83 268.17,355.44 271.59,352.14 275.02,355.14 278.45,351.02 281.87,354.87 285.30,354.54 288.73,352.04 292.15,350.12 295.58,354.19 299.00,351.70 302.43,349.08 305.86,352.98 309.28,351.91 312.71,357.75 316.14,367.06 319.56,359.97 322.99,360.61 326.41,366.39 329.84,371.05 333.27,362.85 336.69,360.94 340.12,368.03 343.55,374.09 346.97,361.76 350.40,359.81 353.82,357.36 357.25,358.82 360.68,352.12 364.10,351.60 367.53,342.37 370.96,340.83 374.38,350.27 377.81,349.09 381.24,343.52 384.66,346.17 388.09,343.27 391.51,340.66 394.94,340.40 398.37,341.93 401.79,345.88 405.22,351.08 408.65,347.14 412.07,346.36 415.50,341.69 418.92,341.12 422.35,342.33 425.78,330.77 429.20,330.79 432.63,328.17 436.06,324.46 439.48,326.98 442.91,329.88 446.33,333.43 449.76,339.34 453.19,349.91 456.61,357.20 460.04,348.14 463.47,341.01 466.89,347.42 470.32,359.80 473.75,364.63 477.17,364.45 480.60,376.38 484.02,372.85 487.45,365.00 490.88,373.40 494.30,369.36 497.73,361.24 501.16,373.77 504.58,366.82 508.01,369.43 511.43,365.15 514.86,362.51 518.29,368.02 521.71,371.32 525.14,375.95 528.57,373.93 531.99,368.85 535.42,369.23 538.84,367.35 542.27,369.55 545.70,370.91 549.12,363.06 552.55,361.61 555.98,348.00 559.40,356.37 562.83,358.02 566.25,355.04 569.68,353.52 573.11,353.61 576.53,358.06 579.96,357.07 583.39,352.70 586.81,351.35 590.24,348.59 593.67,347.08 597.09,342.79 600.52,335.29 603.94,336.99 607.37,333.30 610.80,334.61 614.22,329.01 617.65,335.46 621.08,330.13 624.50,324.08 627.93,315.40 631.35,312.99 634.78,315.46 638.21,318.70 641.63,320.27 645.06,319.06 648.49,326.11 651.91,332.84 655.34,333.52 658.76,335.08 662.19,340.65 665.62,328.01 669.04,323.27 672.47,323.32 675.90,321.93 679.32,316.16 682.75,317.15 686.18,312.10 689.60,312.02 693.03,313.17 696.45,314.76 699.88,309.13 703.31,300.07 706.73,303.12 710.16,297.60 713.59,294.58 717.01,295.77 720.44,296.23 723.86,298.92 727.29,292.98 730.72,296.15 734.14,287.28 737.57,283.88 741.00,292.74 744.42,285.71 747.85,272.41 751.27,273.12 754.70,279.12 758.13,280.19 761.55,277.76 764.98,267.41 768.41,254.15 771.83,256.00 775.26,257.41 778.69,249.69 782.11,239.54 785.54,234.06 788.96,230.86 792.39,224.72 795.82,230.70 799.24,229.71 802.67,230.00 806.10,227.78 809.52,227.39 812.95,227.69 816.37,224.41 819.80,229.36 823.23,224.70 826.65,215.46 830.08,211.82 833.51,217.64 836.93,210.76 840.36,203.77 843.78,200.05 847.21,198.59 850.64,198.82 854.06,206.24 857.49,211.13 860.92,211.62 864.34,214.78 867.77,220.52 871.20,225.91 874.62,219.43 878.05,212.42 881.47,207.24 884.90,199.44 888.33,201.09 891.75,194.81 895.18,195.11 898.61,193.51 902.03,198.64 905.46,196.93 908.88,194.17 912.31,193.55 915.74,196.54 919.16,198.47 922.59,200.56 926.02,197.99 929.44,200.56 932.87,207.05 936.29,206.28 939.72,193.90 943.15,194.75 946.57,194.12 950.00,196.25" fill="none" stroke="#F28E2B" stroke-width="3" stroke-linejoin="round" stroke-linecap="round"/>
<line x1="730" y1="114" x2="748" y2="114" stroke="#F28E2B" stroke-width="4" stroke-linecap="round"/>
<text x="756" y="118" class="axis">DDQN</text>
<polyline points="90.00,444.68 93.43,445.28 96.85,451.66 100.28,443.75 103.71,443.03 107.13,442.28 110.56,443.83 113.98,444.29 117.41,442.36 120.84,436.97 124.26,435.97 127.69,435.92 131.12,432.72 134.54,436.16 137.97,436.84 141.39,435.05 144.82,438.69 148.25,441.62 151.67,435.63 155.10,434.06 158.53,431.45 161.95,427.73 165.38,425.91 168.80,423.74 172.23,419.96 175.66,417.47 179.08,414.46 182.51,411.49 185.94,407.89 189.36,408.24 192.79,411.43 196.22,412.49 199.64,416.03 203.07,414.37 206.49,414.49 209.92,413.40 213.35,407.82 216.77,404.68 220.20,402.44 223.63,398.54 227.05,397.90 230.48,395.59 233.90,393.82 237.33,393.73 240.76,393.74 244.18,388.14 247.61,386.78 251.04,385.96 254.46,383.84 257.89,383.26 261.31,385.15 264.74,387.31 268.17,383.04 271.59,381.26 275.02,382.99 278.45,380.21 281.87,382.51 285.30,381.84 288.73,380.36 292.15,379.36 295.58,382.43 299.00,383.52 302.43,381.92 305.86,385.97 309.28,384.74 312.71,387.65 316.14,392.03 319.56,389.41 322.99,389.69 326.41,392.70 329.84,395.10 333.27,391.29 336.69,390.42 340.12,392.77 343.55,397.36 346.97,391.19 350.40,389.48 353.82,387.48 357.25,389.00 360.68,384.21 364.10,382.91 367.53,378.44 370.96,378.59 374.38,384.76 377.81,384.51 381.24,382.01 384.66,382.78 388.09,379.89 391.51,378.38 394.94,377.52 398.37,378.64 401.79,380.89 405.22,383.66 408.65,382.10 412.07,382.16 415.50,379.37 418.92,378.56 422.35,379.15 425.78,372.73 429.20,373.48 432.63,371.17 436.06,370.00 439.48,371.49 442.91,372.64 446.33,373.26 449.76,375.31 453.19,380.58 456.61,383.61 460.04,379.22 463.47,376.27 466.89,379.18 470.32,385.02 473.75,386.89 477.17,386.39 480.60,391.53 484.02,391.18 487.45,387.80 490.88,393.04 494.30,390.93 497.73,387.35 501.16,394.19 504.58,390.59 508.01,390.14 511.43,385.75 514.86,384.24 518.29,387.32 521.71,387.65 525.14,390.69 528.57,390.15 531.99,387.02 535.42,386.67 538.84,385.23 542.27,384.34 545.70,385.90 549.12,381.71 552.55,381.67 555.98,375.42 559.40,378.05 562.83,379.43 566.25,378.00 569.68,376.98 573.11,377.87 576.53,380.30 579.96,380.01 583.39,377.70 586.81,375.12 590.24,373.53 593.67,372.62 597.09,371.58 600.52,369.13 603.94,369.80 607.37,367.21 610.80,366.72 614.22,365.02 617.65,368.40 621.08,364.92 624.50,361.52 627.93,356.26 631.35,354.49 634.78,356.00 638.21,358.27 641.63,360.48 645.06,361.20 648.49,363.42 651.91,366.37 655.34,367.72 658.76,367.32 662.19,370.15 665.62,363.67 669.04,360.43 672.47,359.96 675.90,357.97 679.32,355.43 682.75,355.92 686.18,353.62 689.60,353.75 693.03,354.68 696.45,356.28 699.88,352.76 703.31,348.92 706.73,351.06 710.16,347.81 713.59,344.97 717.01,346.65 720.44,347.43 723.86,349.61 727.29,346.71 730.72,349.01 734.14,344.55 737.57,343.47 741.00,347.15 744.42,342.80 747.85,336.11 751.27,336.73 754.70,340.38 758.13,341.88 761.55,341.37 764.98,334.38 768.41,326.75 771.83,328.20 775.26,328.46 778.69,322.89 782.11,316.23 785.54,314.20 788.96,310.74 792.39,306.19 795.82,309.15 799.24,309.85 802.67,310.13 806.10,308.29 809.52,308.31 812.95,309.21 816.37,305.80 819.80,308.66 823.23,305.53 826.65,299.00 830.08,296.15 833.51,299.96 836.93,296.88 840.36,292.09 843.78,289.87 847.21,287.77 850.64,287.90 854.06,291.89 857.49,294.77 860.92,292.79 864.34,294.52 867.77,297.32 871.20,298.69 874.62,295.37 878.05,291.61 881.47,287.88 884.90,283.66 888.33,284.19 891.75,280.52 895.18,279.83 898.61,279.11 902.03,282.58 905.46,280.75 908.88,278.33 912.31,276.78 915.74,278.92 919.16,280.47 922.59,283.28 926.02,280.69 929.44,283.43 932.87,287.35 936.29,288.08 939.72,280.79 943.15,280.16 946.57,281.19 950.00,281.75" fill="none" stroke="#59A14F" stroke-width="3" stroke-linejoin="round" stroke-linecap="round"/>
<line x1="730" y1="138" x2="748" y2="138" stroke="#59A14F" stroke-width="4" stroke-linecap="round"/>
<text x="756" y="142" class="axis">Duel DDQN</text>
<polyline points="90.00,444.68 93.43,445.25 96.85,450.55 100.28,439.32 103.71,438.76 107.13,438.20 110.56,439.50 113.98,440.56 117.41,436.90 120.84,427.21 124.26,427.42 127.69,426.18 131.12,419.27 134.54,423.50 137.97,422.82 141.39,420.03 144.82,426.29 148.25,431.98 151.67,421.73 155.10,417.65 158.53,412.46 161.95,408.55 165.38,404.33 168.80,401.62 172.23,393.61 175.66,388.96 179.08,386.56 182.51,379.78 185.94,375.61 189.36,376.64 192.79,382.83 196.22,381.96 199.64,386.46 203.07,383.40 206.49,383.08 209.92,379.58 213.35,368.87 216.77,366.78 220.20,363.02 223.63,354.02 227.05,353.54 230.48,352.74 233.90,346.86 237.33,349.17 240.76,348.29 244.18,340.82 247.61,339.63 251.04,338.22 254.46,332.40 257.89,331.46 261.31,334.57 264.74,338.26 268.17,333.17 271.59,330.29 275.02,332.60 278.45,329.23 281.87,333.38 285.30,332.89 288.73,330.86 292.15,329.92 295.58,334.45 299.00,332.87 302.43,329.50 305.86,332.88 309.28,332.14 312.71,338.21 316.14,345.57 319.56,338.30 322.99,339.31 326.41,345.07 329.84,349.20 333.27,343.10 336.69,338.84 340.12,344.92 343.55,348.66 346.97,338.67 350.40,334.03 353.82,332.80 357.25,334.48 360.68,326.91 364.10,324.97 367.53,313.81 370.96,312.32 374.38,323.50 377.81,322.34 381.24,317.63 384.66,319.46 388.09,316.83 391.51,317.47 394.94,318.17 398.37,320.06 401.79,323.53 405.22,326.88 408.65,323.90 412.07,323.44 415.50,318.87 418.92,318.46 422.35,321.35 425.78,311.81 429.20,310.84 432.63,307.59 436.06,305.62 439.48,307.94 442.91,310.48 446.33,311.77 449.76,315.50 453.19,322.08 456.61,328.10 460.04,321.44 463.47,316.83 466.89,323.18 470.32,331.95 473.75,335.60 477.17,335.05 480.60,343.62 484.02,341.75 487.45,336.70 490.88,342.02 494.30,340.94 497.73,334.60 501.16,344.51 504.58,340.55 508.01,345.99 511.43,339.36 514.86,335.74 518.29,339.82 521.71,341.80 525.14,345.02 528.57,343.41 531.99,336.80 535.42,337.20 538.84,336.52 542.27,337.17 545.70,335.96 549.12,328.59 552.55,326.54 555.98,314.39 559.40,318.19 562.83,319.81 566.25,317.54 569.68,316.42 573.11,315.73 576.53,318.86 579.96,314.09 583.39,311.65 586.81,308.10 590.24,306.70 593.67,303.62 597.09,300.43 600.52,295.59 603.94,295.66 607.37,292.97 610.80,295.36 614.22,292.67 617.65,299.95 621.08,295.38 624.50,291.44 627.93,281.39 631.35,280.21 634.78,283.50 638.21,287.84 641.63,288.50 645.06,288.02 648.49,292.33 651.91,296.37 655.34,299.81 658.76,300.76 662.19,307.31 665.62,300.86 669.04,299.49 672.47,299.87 675.90,299.52 679.32,295.15 682.75,296.69 686.18,292.18 689.60,293.69 693.03,294.30 696.45,297.39 699.88,293.25 703.31,286.64 706.73,290.27 710.16,285.24 713.59,282.60 717.01,284.09 720.44,283.52 723.86,285.60 727.29,282.24 730.72,284.91 734.14,278.85 737.57,276.99 741.00,282.24 744.42,278.45 747.85,269.29 751.27,268.14 754.70,274.35 758.13,275.63 761.55,273.03 764.98,263.68 768.41,255.69 771.83,258.16 775.26,258.91 778.69,253.68 782.11,245.86 785.54,241.91 788.96,237.78 792.39,231.40 795.82,235.26 799.24,235.59 802.67,235.45 806.10,231.56 809.52,229.20 812.95,230.66 816.37,225.51 819.80,231.48 823.23,227.77 826.65,219.48 830.08,216.11 833.51,220.61 836.93,215.91 840.36,210.92 843.78,208.08 847.21,206.64 850.64,207.52 854.06,213.00 857.49,217.72 860.92,217.41 864.34,217.83 867.77,222.94 871.20,226.20 874.62,219.67 878.05,213.64 881.47,208.26 884.90,202.58 888.33,204.97 891.75,201.74 895.18,200.55 898.61,197.33 902.03,201.52 905.46,200.71 908.88,196.96 912.31,197.41 915.74,199.10 919.16,199.40 922.59,202.00 926.02,201.96 929.44,203.35 932.87,208.57 936.29,209.53 939.72,202.32 943.15,199.25 946.57,197.60 950.00,198.10" fill="none" stroke="#FF9D9A" stroke-width="3" stroke-linejoin="round" stroke-linecap="round"/>
<line x1="730" y1="162" x2="748" y2="162" stroke="#FF9D9A" stroke-width="4" stroke-linecap="round"/>
<text x="756" y="166" class="axis">D3QN (+PER+3-step)</text>
<polyline points="90.00,444.68 93.43,445.49 96.85,453.85 100.28,441.10 103.71,440.22 107.13,438.81 110.56,441.50 113.98,441.99 117.41,438.15 120.84,427.68 124.26,426.49 127.69,424.72 131.12,417.03 134.54,422.53 137.97,421.26 141.39,418.37 144.82,425.20 148.25,431.35 151.67,419.41 155.10,415.62 158.53,410.28 161.95,404.63 165.38,400.58 168.80,397.39 172.23,389.52 175.66,383.93 179.08,380.00 182.51,373.75 185.94,368.50 189.36,368.97 192.79,376.04 196.22,377.79 199.64,382.56 203.07,379.68 206.49,380.04 209.92,376.99 213.35,364.05 216.77,358.32 220.20,354.57 223.63,345.82 227.05,345.07 230.48,342.43 233.90,338.29 237.33,338.99 240.76,338.67 244.18,327.94 247.61,325.04 251.04,322.72 254.46,316.75 257.89,315.05 261.31,318.91 264.74,322.83 268.17,314.25 271.59,310.33 275.02,313.86 278.45,308.90 281.87,313.31 285.30,312.91 288.73,308.81 292.15,305.19 295.58,310.56 299.00,311.97 302.43,309.14 305.86,315.64 309.28,313.00 312.71,320.00 316.14,330.05 319.56,321.57 322.99,322.82 326.41,330.55 329.84,336.04 333.27,329.10 336.69,325.76 340.12,332.45 343.55,340.48 346.97,327.71 350.40,323.89 353.82,320.03 357.25,321.75 360.68,312.85 364.10,310.81 367.53,301.05 370.96,299.47 374.38,311.63 377.81,309.31 381.24,303.21 384.66,305.38 388.09,299.82 391.51,298.65 394.94,298.48 398.37,300.38 401.79,304.95 405.22,311.22 408.65,307.19 412.07,306.76 415.50,301.27 418.92,300.59 422.35,302.08 425.78,289.02 429.20,290.57 432.63,286.37 436.06,285.37 439.48,288.25 442.91,290.76 446.33,292.73 449.76,297.16 453.19,308.21 456.61,316.69 460.04,307.40 463.47,298.88 466.89,305.63 470.32,318.49 473.75,322.98 477.17,323.04 480.60,336.09 484.02,332.39 487.45,324.86 490.88,334.74 494.30,330.25 497.73,321.36 501.16,334.03 504.58,325.95 508.01,326.99 511.43,320.97 514.86,316.90 518.29,323.63 521.71,325.88 525.14,331.52 528.57,330.41 531.99,324.39 535.42,324.67 538.84,322.41 542.27,322.12 545.70,323.98 549.12,315.39 552.55,314.58 555.98,299.33 559.40,306.67 562.83,309.16 566.25,305.34 569.68,303.68 573.11,304.11 576.53,309.40 579.96,309.29 583.39,306.33 586.81,304.27 590.24,302.82 593.67,299.96 597.09,294.96 600.52,288.65 603.94,290.09 607.37,285.18 610.80,287.20 614.22,281.30 617.65,290.46 621.08,283.94 624.50,275.20 627.93,265.47 631.35,261.86 634.78,264.41 638.21,269.43 641.63,272.70 645.06,273.29 648.49,279.27 651.91,285.85 655.34,287.77 658.76,286.99 662.19,292.81 665.62,279.00 669.04,272.73 672.47,272.87 675.90,270.97 679.32,265.52 682.75,266.94 686.18,261.72 689.60,262.27 693.03,263.14 696.45,266.58 699.88,259.89 703.31,250.84 706.73,255.70 710.16,248.72 713.59,242.77 717.01,245.64 720.44,247.41 723.86,250.93 727.29,244.60 730.72,248.62 734.14,238.35 737.57,234.60 741.00,243.83 744.42,235.57 747.85,219.44 751.27,219.60 754.70,227.18 758.13,229.29 761.55,226.77 764.98,212.40 768.41,196.58 771.83,199.84 775.26,200.01 778.69,190.85 782.11,177.48 785.54,172.49 788.96,167.37 792.39,158.06 795.82,165.46 799.24,164.00 802.67,164.09 806.10,159.73 809.52,159.94 812.95,161.06 816.37,155.35 819.80,161.75 823.23,155.05 826.65,142.36 830.08,137.26 833.51,144.81 836.93,136.99 840.36,127.72 843.78,123.53 847.21,120.57 850.64,120.74 854.06,130.04 857.49,135.16 860.92,132.07 864.34,134.49 867.77,141.48 871.20,146.84 874.62,139.49 878.05,131.52 881.47,122.93 884.90,114.79 888.33,116.83 891.75,108.84 895.18,107.80 898.61,105.89 902.03,113.19 905.46,110.57 908.88,106.31 912.31,105.00 915.74,108.27 919.16,111.14 922.59,116.42 926.02,114.08 929.44,118.36 932.87,127.78 936.29,129.17 939.72,114.61 943.15,114.45 946.57,115.09 950.00,117.00" fill="none" stroke="#A0CBE8" stroke-width="3" stroke-linejoin="round" stroke-linecap="round"/>
<line x1="730" y1="186" x2="748" y2="186" stroke="#A0CBE8" stroke-width="4" stroke-linecap="round"/>
<text x="756" y="190" class="axis">D3QN+Noisy</text>
<text x="520.00" y="542" text-anchor="middle" class="label">Evaluation Step</text>
<text x="24" y="280.00" transform="rotate(-90 24,280.00)" class="label">Mean Cumulative Return</text>
</svg>