<svg xmlns="http://www.w3.org/2000/svg" width="980" height="560" viewBox="0 0 980 560">
<rect width="100%" height="100%" fill="#FAFAFA"/>
<style>
text { font-family: Helvetica, Arial, sans-serif; fill: #1F2937; }
.title { font-size: 24px; font-weight: 700; }
.axis { font-size: 12px; }
.label { font-size: 13px; font-weight: 600; }
.small { font-size: 11px; fill: #4B5563; }
</style>
<text x="90" y="36" class="title">AAPL Ablation: Mean Return Rate</text>
<text x="90" y="56" class="small">Bars show mean across seeds; whiskers show one standard deviation.</text>
<line x1="90" y1="70" x2="90" y2="440" stroke="#374151" stroke-width="1.5"/>
<line x1="90" y1="409.17" x2="950" y2="409.17" stroke="#9CA3AF" stroke-width="1.2"/>
<line x1="84" y1="440.00" x2="950" y2="440.00" stroke="#E5E7EB" stroke-width="1"/>
<text x="80" y="444.00" text-anchor="end" class="axis">-0.02</text>
<line x1="84" y1="366.00" x2="950" y2="366.00" stroke="#E5E7EB" stroke-width="1"/>
<text x="80" y="370.00" text-anchor="end" class="axis">0.03</text>
<line x1="84" y1="292.00" x2="950" y2="292.00" stroke="#E5E7EB" stroke-width="1"/>
<text x="80" y="296.00" text-anchor="end" class="axis">0.09</text>
<line x1="84" y1="218.00" x2="950" y2="218.00" stroke="#E5E7EB" stroke-width="1"/>
<text x="80" y="222.00" text-anchor="end" class="axis">0.15</text>
<line x1="84" y1="144.00" x2="950" y2="144.00" stroke="#E5E7EB" stroke-width="1"/>
<text x="80" y="148.00" text-anchor="end" class="axis">0.20</text>
<line x1="84" y1="70.00" x2="950" y2="70.00" stroke="#E5E7EB" stroke-width="1"/>
<text x="80" y="74.00" text-anchor="end" class="axis">0.26</text>
<rect x="152.50" y="274.63" width="90.00" height="134.53" fill="#59A14F" rx="6"/>
<line x1="197.50" y1="180.25" x2="197.50" y2="369.02" stroke="#111827" stroke-width="1.5"/>
<line x1="187.50" y1="180.25" x2="207.50" y2="180.25" stroke="#111827" stroke-width="1.5"/>
<line x1="187.50" y1="369.02" x2="207.50" y2="369.02" stroke="#111827" stroke-width="1.5"/>
<text x="197.50" y="462" text-anchor="middle" class="label">Dueling DDQN</text>
<text x="197.50" y="266.63" text-anchor="middle" class="small">0.104</text>
<rect x="367.50" y="231.66" width="90.00" height="177.50" fill="#E15759" rx="6"/>
<line x1="412.50" y1="100.83" x2="412.50" y2="362.49" stroke="#111827" stroke-width="1.5"/>
<line x1="402.50" y1="100.83" x2="422.50" y2="100.83" stroke="#111827" stroke-width="1.5"/>
<line x1="402.50" y1="362.49" x2="422.50" y2="362.49" stroke="#111827" stroke-width="1.5"/>
<text x="412.50" y="462" text-anchor="middle" class="label">Noisy Full (sigma=0.5, lr=0.0005)</text>
<text x="412.50" y="223.66" text-anchor="middle" class="small">0.137</text>
<rect x="582.50" y="312.94" width="90.00" height="96.23" fill="#4E79A7" rx="6"/>
<line x1="627.50" y1="244.20" x2="627.50" y2="381.68" stroke="#111827" stroke-width="1.5"/>
<line x1="617.50" y1="244.20" x2="637.50" y2="244.20" stroke="#111827" stroke-width="1.5"/>
<line x1="617.50" y1="381.68" x2="637.50" y2="381.68" stroke="#111827" stroke-width="1.5"/>
<text x="627.50" y="462" text-anchor="middle" class="label">Noisy Full (sigma=0.5, lr=0.00025)</text>
<text x="627.50" y="304.94" text-anchor="middle" class="small">0.074</text>
<rect x="797.50" y="308.88" width="90.00" height="100.28" fill="#B07AA1" rx="6"/>
<line x1="842.50" y1="256.23" x2="842.50" y2="361.53" stroke="#111827" stroke-width="1.5"/>
<line x1="832.50" y1="256.23" x2="852.50" y2="256.23" stroke="#111827" stroke-width="1.5"/>
<line x1="832.50" y1="361.53" x2="852.50" y2="361.53" stroke="#111827" stroke-width="1.5"/>
<text x="842.50" y="462" text-anchor="middle" class="label">Noisy Full (sigma=0.3, lr=0.00025)</text>
<text x="842.50" y="300.88" text-anchor="middle" class="small">0.077</text>
<text x="24" y="255.00" transform="rotate(-90 24,255.00)" class="label">Mean Return Rate</text>
</svg>