<svg xmlns="http://www.w3.org/2000/svg" width="980" height="560" viewBox="0 0 980 560">
<rect width="100%" height="100%" fill="#FAFAFA"/>
<style>
text { font-family: Helvetica, Arial, sans-serif; fill: #1F2937; }
.title { font-size: 24px; font-weight: 700; }
.axis { font-size: 12px; }
.label { font-size: 13px; font-weight: 600; }
.small { font-size: 11px; fill: #4B5563; }
</style>
<text x="90" y="36" class="title">AAPL Ablation: Training Reward Curve</text>
<text x="90" y="56" class="small">Curves show mean training episode reward across seeds.</text>
<line x1="90" y1="70" x2="90" y2="490" stroke="#374151" stroke-width="1.5"/>
<line x1="90" y1="490" x2="950" y2="490" stroke="#374151" stroke-width="1.5"/>
<line x1="90.00" y1="490" x2="90.00" y2="496" stroke="#374151" stroke-width="1"/>
<text x="90.00" y="514" text-anchor="middle" class="axis">1</text>
<line x1="168.18" y1="490" x2="168.18" y2="496" stroke="#374151" stroke-width="1"/>
<text x="168.18" y="514" text-anchor="middle" class="axis">2</text>
<line x1="246.36" y1="490" x2="246.36" y2="496" stroke="#374151" stroke-width="1"/>
<text x="246.36" y="514" text-anchor="middle" class="axis">3</text>
<line x1="324.55" y1="490" x2="324.55" y2="496" stroke="#374151" stroke-width="1"/>
<text x="324.55" y="514" text-anchor="middle" class="axis">4</text>
<line x1="402.73" y1="490" x2="402.73" y2="496" stroke="#374151" stroke-width="1"/>
<text x="402.73" y="514" text-anchor="middle" class="axis">5</text>
<line x1="480.91" y1="490" x2="480.91" y2="496" stroke="#374151" stroke-width="1"/>
<text x="480.91" y="514" text-anchor="middle" class="axis">6</text>
<line x1="559.09" y1="490" x2="559.09" y2="496" stroke="#374151" stroke-width="1"/>
<text x="559.09" y="514" text-anchor="middle" class="axis">7</text>
<line x1="637.27" y1="490" x2="637.27" y2="496" stroke="#374151" stroke-width="1"/>
<text x="637.27" y="514" text-anchor="middle" class="axis">8</text>
<line x1="715.45" y1="490" x2="715.45" y2="496" stroke="#374151" stroke-width="1"/>
<text x="715.45" y="514" text-anchor="middle" class="axis">9</text>
<line x1="793.64" y1="490" x2="793.64" y2="496" stroke="#374151" stroke-width="1"/>
<text x="793.64" y="514" text-anchor="middle" class="axis">10</text>
<line x1="871.82" y1="490" x2="871.82" y2="496" stroke="#374151" stroke-width="1"/>
<text x="871.82" y="514" text-anchor="middle" class="axis">11</text>
<line x1="950.00" y1="490" x2="950.00" y2="496" stroke="#374151" stroke-width="1"/>
<text x="950.00" y="514" text-anchor="middle" class="axis">12</text>
<line x1="84" y1="490.00" x2="950" y2="490.00" stroke="#E5E7EB" stroke-width="1"/>
<text x="80" y="494.00" text-anchor="end" class="axis">-74.22</text>
<line x1="84" y1="406.00" x2="950" y2="406.00" stroke="#E5E7EB" stroke-width="1"/>
<text x="80" y="410.00" text-anchor="end" class="axis">-18.98</text>
<line x1="84" y1="322.00" x2="950" y2="322.00" stroke="#E5E7EB" stroke-width="1"/>
<text x="80" y="326.00" text-anchor="end" class="axis">36.26</text>
<line x1="84" y1="238.00" x2="950" y2="238.00" stroke="#E5E7EB" stroke-width="1"/>
<text x="80" y="242.00" text-anchor="end" class="axis">91.50</text>
<line x1="84" y1="154.00" x2="950" y2="154.00" stroke="#E5E7EB" stroke-width="1"/>
<text x="80" y="158.00" text-anchor="end" class="axis">146.74</text>
<line x1="84" y1="70.00" x2="950" y2="70.00" stroke="#E5E7EB" stroke-width="1"/>
<text x="80" y="74.00" text-anchor="end" class="axis">201.98</text>
<polyline points="90.00,447.55 168.18,301.92 246.36,290.26 324.55,209.06 402.73,252.81 480.91,188.08 559.09,266.39 637.27,218.59 715.45,306.23 793.64,187.93 871.82,160.76 950.00,220.26" fill="none" stroke="#4E79A7" stroke-width="3" stroke-linejoin="round" stroke-linecap="round"/>
<line x1="730" y1="90" x2="748" y2="90" stroke="#4E79A7" stroke-width="4" stroke-linecap="round"/>
<text x="756" y="94" class="axis">DQN</text>
<polyline points="90.00,429.81 168.18,455.00 246.36,375.83 324.55,400.26 402.73,393.16 480.91,379.58 559.09,407.40 637.27,351.39 715.45,366.65 793.64,388.50 871.82,382.72 950.00,372.02" fill="none" stroke="#F28E2B" stroke-width="3" stroke-linejoin="round" stroke-linecap="round"/>
<line x1="730" y1="114" x2="748" y2="114" stroke="#F28E2B" stroke-width="4" stroke-linecap="round"/>
<text x="756" y="118" class="axis">Double DQN</text>
<polyline points="90.00,411.00 168.18,382.06 246.36,289.55 324.55,232.33 402.73,295.28 480.91,382.26 559.09,197.96 637.27,289.10 715.45,127.45 793.64,235.93 871.82,144.49 950.00,105.00" fill="none" stroke="#59A14F" stroke-width="3" stroke-linejoin="round" stroke-linecap="round"/>
<line x1="730" y1="138" x2="748" y2="138" stroke="#59A14F" stroke-width="4" stroke-linecap="round"/>
<text x="756" y="142" class="axis">Dueling DDQN</text>
<polyline points="90.00,430.16 168.18,365.89 246.36,360.62 324.55,366.65 402.73,393.82 480.91,358.19 559.09,376.64 637.27,353.27 715.45,286.41 793.64,238.56 871.82,112.55 950.00,283.73" fill="none" stroke="#E15759" stroke-width="3" stroke-linejoin="round" stroke-linecap="round"/>
<line x1="730" y1="162" x2="748" y2="162" stroke="#E15759" stroke-width="4" stroke-linecap="round"/>
<text x="756" y="166" class="axis">D3QN + PER + 3-step</text>
<polyline points="90.00,397.67 168.18,417.90 246.36,369.59 324.55,372.13 402.73,389.82 480.91,326.46 559.09,265.63 637.27,286.36 715.45,389.82 793.64,197.76 871.82,362.14 950.00,217.53" fill="none" stroke="#B07AA1" stroke-width="3" stroke-linejoin="round" stroke-linecap="round"/>
<line x1="730" y1="186" x2="748" y2="186" stroke="#B07AA1" stroke-width="4" stroke-linecap="round"/>
<text x="756" y="190" class="axis">D3QN + PER + 3-step + Noisy</text>
<text x="520.00" y="542" text-anchor="middle" class="label">Episode</text>
<text x="24" y="280.00" transform="rotate(-90 24,280.00)" class="label">Episode Reward</text>
</svg>